<svg fill="none" height="70" viewBox="0 0 52 70" width="52" xmlns="http://www.w3.org/2000/svg" xmlns:xlink="http://www.w3.org/1999/xlink"><linearGradient id="a" gradientUnits="userSpaceOnUse" x1="40.9238" x2="40.9237" y1="-4.2842" y2="146.294"><stop offset="0" stop-color="#3a4a3e"/><stop offset="1" stop-color="#fff"/></linearGradient><path d="m25.974 69.74c-.2883 0-.5609-.1301-.743-.3534-.1408-.173-14.1378-17.3893-18.78201-24.2544-2.31141-3.4169-4.02808-6.9038-5.10058-10.3643-1.051092-3.384-1.490968-6.7572-1.3080985-10.025.3583255-6.4285 3.1458585-12.4246 8.0610985-17.33989 4.77439-4.77361 11.12129-7.40301 17.87259-7.40301 6.7514 0 13.0983 2.6294 17.8727 7.40301 4.9152 4.91529 7.7028 10.91139 8.0611 17.33989.182 3.2678-.2578 6.641-1.3073 10.0258-1.0733 3.4605-2.7892 6.9475-5.1006 10.3644-4.6442 6.8651-18.6412 24.0814-18.782 24.2544-.1821.2232-.4555.3525-.7439.3525z" fill="url(#a)"/><path d="m35.3942 44.7814c-.8978 0-1.7187-.1667-2.4627-.5002-.7182-.3592-1.4365-.9364-2.1548-1.7316-.6927-.8209-1.4622-1.9368-2.3088-3.3477l-3.848-6.5416h-2.6936v11.7363h-3.4631v-20.779c0-1.1544-.1668-2.0779-.5003-2.7706-.3078-.7183-1.0389-1.0774-2.1933-1.0774h-.7696v-.7696h10.0047c.667 0 1.4109.0513 2.2318.1539.8466.077 1.6932.2566 2.5397.5387.8722.2566 1.6675.6414 2.3858 1.1544.7439.4874 1.3339 1.1544 1.77 2.001.4618.8209.6927 1.847.6927 3.0783 0 1.4879-.3335 2.6808-1.0005 3.5787-.6413.8722-1.4366 1.5392-2.3858 2.0009-.9491.4361-1.8726.7568-2.7705.962l4.0404 6.734c.9748 1.6418 1.847 2.7705 2.6166 3.3862.7696.59 1.629.9363 2.5781 1.0389v.7696c-.2052.1026-.5259.1924-.962.2694-.4104.0769-.8593.1154-1.3468.1154zm-10.5819-13.4679c.5387 0 1.1416-.1026 1.8086-.3078.667-.2053 1.3211-.5131 1.9624-.9235.6414-.4361 1.1673-1.0005 1.5777-1.6931.4105-.6927.6157-1.5136.6157-2.4628 0-1.0004-.2052-1.8598-.6157-2.5781-.4104-.7183-.9363-1.2955-1.5777-1.7316-.6413-.4361-1.2954-.7567-1.9624-.962-.667-.2052-1.2699-.3078-1.8086-.3078-.4874 0-1.0004.0385-1.5392.1154-.513.077-.962.1668-1.3468.2694v10.1971c.3848.1026.8338.1924 1.3468.2694.5388.0769 1.0518.1154 1.5392.1154z" fill="#fff"/></svg>