<svg width="100" height="100" viewBox="0 0 100 100" fill="none" xmlns="http://www.w3.org/2000/svg">
<rect width="100" height="100" fill="url(#paint0_linear_1517_12)"/>
<path d="M45.3327 52.1843L38.5196 52.1843L38.5196 81.5566H29.7598L29.7598 29.568C29.7598 26.6808 29.351 24.3518 28.5529 22.581C27.7353 20.8102 25.8665 19.9248 22.9466 19.9248H21V18L46.3255 18C48.4084 18 50.8417 18.1732 53.6253 18.5389C56.409 18.8854 59.0759 19.6746 61.6065 20.9064C64.1371 22.119 66.2783 23.8706 68.0303 26.1611C69.7823 28.4324 70.6582 31.512 70.6582 35.3616C70.6582 38.1141 70.1716 40.4623 69.1983 42.3871C68.225 44.3119 66.9791 45.9095 65.4413 47.1606C63.9229 48.4117 62.2294 49.3934 60.3801 50.1055C58.5308 50.8177 56.7594 51.3566 55.0658 51.7416L65.2856 68.5835C66.5119 70.643 67.6799 72.3369 68.7506 73.6842C69.8212 75.0316 70.8724 76.148 71.9235 77.0141C72.9553 77.8803 74.0064 78.5154 75.0381 78.9004C76.0698 79.2854 77.2183 79.5356 78.4447 79.6703V81.5951C77.9191 81.8453 77.1405 82.0763 76.0504 82.2688C74.9797 82.4613 73.8312 82.5575 72.5854 82.5575C70.8918 82.5575 69.3151 82.3265 67.8551 81.8838C66.3952 81.4411 64.9741 80.6712 63.6115 79.5741C62.2489 78.477 60.8667 77.0334 59.4652 75.2433C58.0636 73.4533 56.5842 71.2397 55.0269 68.6028L45.3327 52.1843ZM45.8194 48.8159C47.182 48.8159 48.7198 48.5657 50.4523 48.046C52.1848 47.5263 53.82 46.7371 55.3773 45.6785C56.9346 44.6199 58.2583 43.234 59.3289 41.5402C60.3996 39.8464 60.9446 37.7676 60.9446 35.3231C60.9446 32.8209 60.3996 30.6651 59.3289 28.8751C58.2583 27.085 56.9346 25.6414 55.3773 24.5443C53.82 23.4471 52.1848 22.658 50.4523 22.1383C48.7393 21.6186 47.182 21.3684 45.8194 21.3684C44.593 21.3684 43.3082 21.4646 41.9651 21.6571C40.6414 21.8496 39.4734 22.0806 38.5001 22.3308V47.8535C39.4734 48.1037 40.6219 48.3347 41.9651 48.5272C43.3082 48.7197 44.593 48.8159 45.8194 48.8159Z" fill="white"/>
<defs>
<linearGradient id="paint0_linear_1517_12" x1="50" y1="0" x2="50" y2="100" gradientUnits="userSpaceOnUse">
<stop stop-color="#3A4A3E"/>
<stop offset="1" stop-color="#F1F1F1"/>
</linearGradient>
</defs>
</svg>
