<svg fill="none" height="36" viewBox="0 0 27 36" width="27" xmlns="http://www.w3.org/2000/svg"><g fill="#000"><path d="m26.7557 34.9835-2.2521-2.6452v2.6293h-.2656v-2.8683c0-.1346-.0336-.2479-.1009-.3399-.0638-.0921-.1895-.1381-.3771-.1381h-.0266v-.1594h.3718c.2019 0 .3647.0266.4887.0797.1275.0531.2319.1328.3134.239l1.8271 2.1246v-2.4433h.2656v3.5216z"/><path d="m21.8065 35.0736c-.3505 0-.6586-.0815-.9242-.2444-.262-.1664-.4656-.3895-.6108-.6692-.1452-.2798-.2178-.5949-.2178-.9455 0-.3505.0726-.6657.2178-.9454.1452-.2798.3488-.5011.6108-.664.2656-.1664.5737-.2496.9242-.2496.3541 0 .6604.0832.9189.2496.2621.1629.4657.3842.6109.664.1452.2797.2177.5949.2177.9454 0 .3506-.0725.6657-.2177.9455-.1452.2797-.3488.5028-.6109.6692-.2585.1629-.5648.2444-.9189.2444zm0-.239c.3223 0 .5719-.1399.749-.4197.177-.2832.2655-.6834.2655-1.2004s-.0885-.9153-.2655-1.1951c-.1771-.2833-.4267-.4249-.749-.4249-.3222 0-.5718.1416-.7489.4249-.1735.2798-.2603.6781-.2603 1.1951s.0868.9172.2603 1.2004c.1771.2798.4267.4197.7489.4197z"/><path d="m19.1734 34.9676c-.1842 0-.3099-.0478-.3772-.1435-.0672-.0956-.1009-.2779-.1009-.547v-2.8152h.6905v2.8152c0 .1593.0213.2886.0638.3877.046.0956.1487.1434.308.1434h.0531v.1594z"/><path d="m15.7101 34.9676v-2.8152c0-.1593-.023-.2868-.0691-.3824-.0425-.0992-.1434-.1487-.3027-.1487h-.0531v-.1594h1.4606c.0957 0 .2054.0071.3294.0213.1239.0106.2496.0354.3771.0743.131.039.2514.0974.3612.1753.1097.0779.1983.1824.2656.3134.0672.1275.1009.2886.1009.4833 0 .1842-.0337.3382-.1009.4622-.0673.1203-.1541.2177-.2603.2921-.1027.0744-.2125.131-.3293.17-.1169.0389-.2284.0655-.3347.0796-.1027.0107-.1859.016-.2496.016h-.5046v1.4182zm.6905-1.6307h.3187c.1204 0 .2355-.023.3452-.069.1098-.0496.1983-.1346.2656-.255.0708-.1204.1062-.2904.1062-.5099 0-.2196-.0354-.3878-.1062-.5046-.0673-.1204-.154-.2036-.2602-.2497-.1027-.0495-.2107-.0743-.3241-.0743-.0424 0-.0849.0017-.1274.0053-.0425.0035-.0797.0088-.1116.0159l-.1062.016z"/><path d="m15.0971 35.2066c-.386 0-.6622-.0903-.8286-.2709-.1665-.1806-.2497-.471-.2497-.8711v-1.8803l-1.1632 2.7833h-.1753l-1.4235-2.8895v2.8895h-.2656v-3.5057h.648l1.2854 2.608 1.0889-2.608h.6958v2.6027c0 .3222.0266.5648.0797.7277.0567.1593.1593.2532.3081.2815z"/><path d="m10.4973 34.9888c-.1169 0-.2408-.0142-.3718-.0425-.1275-.0319-.25144-.0974-.37184-.1965-.11685-.0992-.21777-.2497-.30276-.4515l-.12216-.2974h-1.41289l-.43555.9667h-.2762l1.56692-3.5057h.23902l1.18976 2.8364c.0638.1558.1417.2797.2337.3718.0921.0921.1983.1452.3187.1594v.1328c-.0283.007-.069.0123-.1221.0159-.0496.0071-.0939.0106-.1328.0106zm-2.4699-1.227h1.20042l-.58428-1.3863z"/><path d="m3.91321 34.9676v-2.8152c0-.1593-.02302-.2868-.06905-.3824-.0425-.0992-.14342-.1487-.30276-.1487h-.05312v-.1594h.63739c.18768 0 .31339.0496.37712.1487.06728.0992.10092.2798.10092.5418v.8764h1.43413v-1.5669h.69051v2.8152c0 .1593.02125.2886.06374.3877.04603.0956.14872.1434.30807.1434h.05312v.1594h-.63739c-.18414 0-.30985-.0478-.37713-.1435-.06728-.0956-.10092-.2779-.10092-.547v-1.0092h-1.43413v1.6997z"/><path d="m1.75282 35.0736c-.37181 0-.68873-.0797-.95077-.239-.262038-.1594-.462108-.3754-.60021-.6481-.1345598-.2726-.20184-.5789-.20184-.9189 0-.2691.0424927-.5187.127478-.7489.088527-.2337.212464-.4373.371811-.6108.159348-.1735.345254-.3081.557721-.4037.21246-.0992.4444-.1487.69581-.1487.33286 0 .60021.0442.80205.1328.20539.0849.35765.1841.4568.2974.07082.0921.11154.2107.12217.3559.01062.1452.01593.2957.01593.4515h-.15935c-.06728-.3223-.19121-.5684-.37181-.7383-.17705-.1736-.41253-.2603-.70644-.2603-.216 0-.41253.0496-.58958.1487-.17706.0992-.3187.2709-.424931.5152-.102691.2408-.154037.5772-.154037 1.0092 0 .2019.021247.3966.063739.5843.042493.1877.109773.3559.201839.5046.09561.1487.21601.2656.36119.3506.14872.085.32932.1275.54178.1275.24433 0 .47096-.0638.67989-.1913.20892-.131.37712-.3204.5046-.5683l.1859.1434c-.16643.2939-.37004.5099-.61083.648s-.54709.2072-.91891.2072z"/><path d="m3.66602 9.15391c.41449-.43647.81301-.85796 1.21253-1.27745.19376-.20376.38952-.40651.58629-.60827.31861-.3256.44146-.70814.37654-1.16359-.09289-.6552-.1638-1.3144-.2437-1.97061-.01798-.14283-.03896-.28465-.05694-.42648-.02197-.17978.01798-.2457.19577-.27966.36256-.06892.72712-.12885 1.08968-.19277.47742-.0849.95484-.1668 1.43126-.25669.38254-.07191.6602-.29165.84798-.62824.38653-.69416.77106-1.389314 1.15757-2.083473.048-.085896.0989-.1697944.1558-.266677.063.0279661.1179.0509383.1708.0769068.7232.3525732 1.4463.7071432 2.1704 1.0567232.1228.05893.2527.10986.3855.14382.2557.06592.5034.01998.7401-.08889.7661-.351574 1.5322-.703148 2.2992-1.054722.065-.029964.1299-.0569312.2068-.09089.033.0559322.0649.105872.0919.158808.3825.721126.7631 1.443254 1.1486 2.163374.0649.12086.1378.24071.2257.34459.1848.22073.4365.3296.7142.38353.811.15781 1.622.31562 2.432.47443.0639.01198.1269.03196.1968.04894-.039.28565-.0749.55832-.1129.83099-.0919.65021-.1888 1.29943-.2747 1.95064-.0449.34158.054.64522.2887.89991.5423.58928 1.0867 1.17557 1.63 1.76386.0779.0849.1548.17179.2417.26867-.0419.04795-.0789.09389-.1198.13584-.5843.60327-1.1676 1.20657-1.7529 1.80777-.2487.2557-.3726.5584-.3486.9139.013.1928.044.3836.0669.5753.0739.6133.1469 1.2265.2208 1.8408.0149.1249.0269.2497.0419.3905-.1918.034-.3685.067-.5463.0969-.7062.1199-1.4123.2387-2.1175.3596-.3865.0659-.6632.2846-.8509.6212-.2827.5064-.5613 1.0138-.842 1.5202-.1338.2417-.2687.4824-.4035.7231-.019.033-.042.0629-.0709.1069-.0789-.033-.1558-.0599-.2278-.0949-.7191-.3496-1.4402-.6942-2.1543-1.0527-.3846-.1928-.7571-.1938-1.1417-.01-.7461.3565-1.4952.7061-2.2432 1.0587-.064.03-.1289.0579-.2028.0919-.029-.049-.0559-.0889-.0789-.1319-.40152-.755-.80203-1.5101-1.20255-2.2662-.17578-.3326-.44745-.5424-.81301-.6213-.25269-.0539-.50938-.0898-.76408-.1358-.61225-.1119-1.22451-.2247-1.83577-.3396-.05294-.01-.10288-.0329-.1678-.0539.01998-.1638.03596-.3216.05793-.4794.10388-.7431.21175-1.4852.31362-2.2283.05294-.3826-.04394-.7192-.30962-1.0078-.51238-.5563-1.02177-1.1157-1.53115-1.67498-.09289-.10188-.18178-.20675-.28266-.32161zm3.7115.06792c.003 3.31097 2.70768 5.93277 5.95278 5.91687 3.1951-.016 5.8879-2.6029 5.8869-5.93186 0-3.26704-2.6588-5.91383-5.9268-5.91183-3.2601.002-5.91887 2.66677-5.91388 5.92682z"/><path d="m24.457 23.4471c-.0899 0-.1508 0-.2107 0-1.2425 0-2.485.002-3.7275-.005-.3336-.002-.5623.1329-.7231.4245-.5264.9509-1.0628 1.8967-1.5951 2.8446-.051.0909-.1049.1787-.1698.2886-.041-.0659-.0739-.1138-.1029-.1638-1.2045-2.0895-2.4081-4.1789-3.6136-6.2674-.0599-.1049-.1219-.2127-.2038-.3006-.6122-.6532-1.4941-.3696-1.8247.1927-.2517.4275-.5004.858-.7471 1.2885-.6552 1.1446-1.3095 2.2892-1.96366 3.4348-.29265.5124-.58429 1.0258-.87794 1.5382-.03196.0559-.07091.1088-.11885.1817-.04695-.0779-.0839-.1368-.11886-.1967-.55033-.9509-1.10067-1.9007-1.648-2.8526-.11586-.2007-.26368-.3535-.5004-.3965-.07491-.014-.15381-.014-.23072-.014-1.2365 0-2.474 0-3.7105.002-.05793 0-.11686 0-.20375 0 .05293-.1039.08789-.1828.13084-.2577 1.2365-2.1913 2.473-4.3827 3.7095-6.573.04894-.0869.09489-.1748.14682-.2597.06992-.1138.15082-.1478.27967-.1238.4065.0749.81101.1558 1.21852.2237.19576.033.3266.1268.42049.3046.38653.7251.78405 1.4453 1.17358 2.1694.30363.5643.97686.785 1.56306.5254.7312-.3227 1.4473-.6782 2.1574-1.0428.1888-.0969.3706-.0869.5544.004.6821.3366 1.3653.6712 2.0455 1.0098.1798.0889.3625.1658.5633.1758.5413.0269.9528-.1938 1.2175-.6682.3756-.6742.7451-1.3534 1.1167-2.0305.0269-.048.0559-.0949.0829-.1429.0549-.0989.1398-.1528.2487-.1728.4714-.0869.9418-.1758 1.4133-.2616.1737-.032.2157-.006.3136.1677 1.0527 1.8578 2.1044 3.7155 3.1571 5.5733.2288.4035.4575.806.6862 1.2095.027.047.05.0949.0889.1708z"/><path d="m18.0503 9.22699c-.025 2.66981-2.1614 4.75121-4.7632 4.73521-2.6967-.0159-4.75025-2.2103-4.73427-4.78416.01598-2.57488 2.10547-4.71628 4.75427-4.70829 2.6348.00699 4.7302 2.11344 4.7432 4.75724zm-5.6661.69016c-.0959-.09688-.1658-.1678-.2347-.23771-.2218-.22373-.4385-.45146-.6662-.66919-.2188-.20775-.5314-.23072-.7791-.07092-.2407.15581-.3526.44946-.2557.72413.037.10487.1059.20774.1848.28865.4195.43149.844.85799 1.2715 1.28249.2876.2856.6552.2886.9398.0039 1.0478-1.0457 2.0925-2.09342 3.1362-3.14214.2627-.26468.2617-.66919.006-.91989-.2527-.2477-.6592-.23671-.9209.02597-.8509.85197-1.7009 1.70393-2.5509 2.5569-.0429.04295-.0779.09389-.1308.15881z"/></g></svg>