<svg fill="none" height="30" viewBox="0 0 25 30" width="25" xmlns="http://www.w3.org/2000/svg"><g fill="#000"><path d="m6.07422 8.50195h12.74958c-2.1273 4.84105-4.2447 9.66335-6.3831 14.52995-2.1307-4.8588-4.24137-9.68-6.36648-14.52995z"/><path d="m5.97083 7.60747c.4013-1.50099.8015-2.99977 1.2039-4.50298h10.54577c.4002 1.49434.8004 2.99312 1.2017 4.4919-.1364.03769-12.69418.04988-12.95247.01108z"/><path d="m20.445.914841c-.0598.035474-.1053.064297-.153.089789-.7416.39022-1.4854.77822-2.226 1.17065-.1031.05543-.2073.06319-.3192.06319-2.8978 0-5.7967 0-8.69448 0-.64297 0-1.28705.00221-1.93001-.00222-.09423 0-.19844-.01774-.28047-.05986-.76269-.39022-1.52095-.78819-2.28031-1.18395-.03659-.018845-.07206-.043234-.12305-.075382.06873-.032148.11972-.059862.17404-.082033.6208-.257187 1.24159-.51659 1.86571-.7671255.10421-.0421254.22393-.06429667.33701-.06540523 3.75576-.00332569 7.51166-.00332569 11.26746 0 .1008 0 .2095.01441103.3026.05210213.6452.2627296 1.2882.5332196 1.9311.8025996.0388.01552.0754.035474.1286.060971z"/><path d="m24.3659 6.62387c-3.2481 4.55733-6.4962 9.11463-9.7443 13.67083-.01-.0045-.02-.01-.0288-.0144.0288-.071.0576-.1431.0887-.2129.9079-2.0675 1.8169-4.1349 2.7248-6.2024.776-1.7648 1.552-3.5297 2.3236-5.29672.0509-.11529.1175-.18402.235-.23058 1.4156-.55982 2.8279-1.12519 4.2424-1.68834.0444-.01773.0898-.03325.1342-.04877.0077.00776.0155.01662.0233.02438z"/><path d="m10.2178 20.2355c-3.23144-4.5362-6.4629-9.0736-9.694362-13.60981.006651-.00776.014411-.01441.021062-.02217.0388.01219.078708.02328.116399.03769 1.413421.56536 2.826831 1.13295 4.241361 1.69499.1164.04656.18735.11196.23834.22836 1.19503 2.72484 2.39339 5.44744 3.59175 8.17124.48333 1.0986.96555 2.1972 1.44775 3.2957.0266.0599.0499.1209.0754.1818-.0122.0078-.0244.0145-.0366.0222z"/><path d="m3.50195 1.4209c.9456.48666 1.87901.96777 2.8357 1.45998-.40906 1.5276-.81701 3.04854-1.23161 4.5961-1.70386-.67623-3.39331-1.3458-5.10604-2.02535 1.17508-1.35244 2.33463-2.68715 3.50195-4.03073z"/><path d="m21.3894 1.4209c1.164 1.34579 2.3158 2.6794 3.4842 4.03184-1.7049.67844-3.3888 1.34912-5.0883 2.02535-.4113-1.53536-.8181-3.05299-1.2316-4.595.939-.48444 1.8757-.96777 2.8357-1.46219z"/><path d="m21.9347 29.9011v-2.4073c0-.1363-.0197-.2453-.0591-.327-.0363-.0848-.1226-.1272-.2589-.1272h-.0454v-.1363h2.003c.106 0 .1862.0182.2407.0545.0545.0333.0924.0788.1136.1363.0212.0545.0318.112.0318.1726v.3861h-.1363c0-.1938-.0499-.3331-.1499-.4179-.0969-.0848-.2361-.1272-.4178-.1272h-.7313v1.1355h1.1809v.2044h-1.1809v1.2491h.7767c.1665 0 .3073-.0364.4224-.109.1181-.0757.2165-.212.2952-.4088l.1227.0454-.1317.3588c-.0334.0969-.0773.1741-.1318.2317-.0514.0575-.1393.0863-.2634.0863z"/><path d="m19.9747 29.9489-1.0582-2.5117c-.0727-.1696-.1439-.2877-.2135-.3543-.0666-.0696-.1454-.1105-.2362-.1226v-.0909c.0121 0 .0424-.0015.0908-.0045.0455-.003.0788-.0045.1-.0045.1059 0 .2134.0121.3224.0363.1121.0242.2181.0772.318.159.0999.0817.1862.2089.2589.3815l.7176 1.6987.9584-2.2301h.2316l-1.3081 3.0431z"/><path d="m18.0035 29.9011c-.1574 0-.2649-.0409-.3225-.1227-.0575-.0817-.0863-.2377-.0863-.4678v-2.4073h.5905v2.4073c0 .1362.0182.2468.0545.3316.0394.0817.1272.1226.2634.1226h.0454v.1363z"/><path d="m15.9347 29.978c-.1635 0-.324-.0212-.4815-.0636-.1574-.0424-.2876-.1045-.3906-.1862-.1029-.0818-.1544-.1802-.1544-.2953v-.5314h.1272c.0484.3149.1453.539.2907.6723.1483.1332.3497.1998.6041.1998.1726 0 .3103-.0363.4133-.109.106-.0757.159-.1862.159-.3316 0-.1302-.0424-.2377-.1272-.3225-.0818-.0878-.1953-.1756-.3407-.2634l-.5586-.3361c-.2059-.1211-.3513-.2453-.4361-.3725-.0848-.1271-.1272-.274-.1272-.4405 0-.2392.0909-.4285.2726-.5678.1847-.1393.433-.2089.7449-.2089.1665 0 .327.0212.4814.0636.1575.0424.2877.1044.3906.1862.103.0818.1545.1802.1545.2952v.5314h-.1272c-.0515-.3149-.1484-.5389-.2907-.6722-.1423-.1332-.3286-.1998-.5587-.1998-.1635 0-.2937.0393-.3906.1181-.0939.0787-.1408.1862-.1408.3225 0 .1271.0424.2301.1272.3088.0878.0787.2029.1605.3452.2453l.5586.3315c.2059.1212.3558.2408.4497.3589.0969.115.1453.2558.1453.4224 0 .2604-.0984.4663-.2952.6177s-.4784.2271-.8448.2271z"/><path d="m13.1849 29.9465c-.8176 0-1.2263-.4512-1.2263-1.3535v-1.0992c0-.1363-.0197-.2453-.0591-.327-.0363-.0848-.1226-.1272-.2589-.1272v-.1363h.4996c.1605 0 .268.0424.3225.1272.0576.0848.0863.2392.0863.4633l.0046 1.2354c.003.3149.0636.5632.1817.7449.1211.1787.3012.268.5405.268.3088 0 .5329-.0924.6722-.2771.1423-.1847.2134-.4754.2134-.872v-1.6897h.2271v1.6897c0 .2846-.0393.5283-.118.7312-.0757.1999-.2014.3543-.377.4633-.1757.106-.4118.159-.7086.159z"/><path d="m9.6368 29.9011v-2.4073c0-.1363-.01968-.2453-.05905-.327-.03633-.0848-.12263-.1272-.25889-.1272h-.04542v-.1363h.54504c.16048 0 .26802.0424.32252.1272.0575.0848.0863.2392.0863.4633v2.2029h1.567v.2044z"/><path d="m7.7889 29.9919c-.31794 0-.58894-.0681-.81302-.2044-.22407-.1362-.39515-.3209-.51324-.5541-.11507-.2332-.1726-.4951-.1726-.7858 0-.2301.03634-.4436.10901-.6404.0757-.1998.18168-.374.31794-.5223.13626-.1484.29523-.2635.47691-.3452.18168-.0848.38002-.1272.595-.1272.28464 0 .51325.0379.68585.1136.17562.0726.30583.1574.39061.2543.06056.0787.09538.1802.10447.3043.00908.1242.01363.2529.01363.3861h-.13627c-.05753-.2756-.16351-.486-.31794-.6314-.1514-.1483-.35276-.2225-.60409-.2225-.1847 0-.35276.0424-.50416.1272s-.27252.2316-.36336.4405c-.08781.2059-.13172.4936-.13172.863 0 .1726.01817.3392.05451.4996.03633.1605.09386.3044.17259.4315.08176.1272.18471.2271.30886.2998.12718.0727.2816.109.46328.109.20894 0 .40273-.0545.58138-.1635.17866-.112.32249-.274.43149-.486l.15898.1226c-.14232.2514-.31643.4361-.52234.5542-.2059.1181-.46782.1771-.78577.1771z"/><path d="m3.40286 29.9011 1.11734-1.4126-.64497-.9947c-.04845-.0787-.10749-.1544-.17714-.2271-.06964-.0757-.14231-.1378-.21801-.1862-.07268-.0515-.14383-.0803-.21348-.0863v-.0909h.49962c.11507 0 .21802.0258.30886.0772.09387.0515.17714.1151.24981.1908s.13323.1529.18168.2316l.39516.6087.87661-1.1083h.29523l-1.04012 1.3127.71309 1.0946c.05148.0787.11053.1559.17714.2316.06965.0727.14232.1333.21802.1817.0757.0485.14686.0772.21347.0863v.0909h-.49962c-.11204 0-.21499-.0258-.30886-.0773-.09386-.0514-.17713-.115-.24981-.1907-.07267-.0788-.13323-.156-.18168-.2317l-.45874-.7085-.95837 1.2082z"/><path d="m1.03231 29.9011v-2.4073c0-.1363-.01969-.2453-.05905-.327-.036336-.0848-.122634-.1272-.258895-.1272h-.04542v-.1363h2.003025c.10599 0 .18623.0182.24073.0545.05451.0333.09236.0788.11355.1363.0212.0545.0318.112.0318.1726v.3861h-.13626c0-.1938-.04997-.3331-.14989-.4179-.0969-.0848-.23619-.1272-.41787-.1272h-.73126v1.1355h1.18092v.2044h-1.18092v1.2491h.77668c.16654 0 .30735-.0364.42241-.109.11809-.0757.2165-.212.29523-.4088l.12264.0454-.13172.3588c-.03331.0969-.07722.1741-.13172.2317-.05148.0575-.13929.0863-.26344.0863z"/></g></svg>