<svg fill="none" height="34" viewBox="0 0 34 34" width="34" xmlns="http://www.w3.org/2000/svg"><g fill="#000"><path d="m23.7565 33.2092h-14.30398c-5.21119 0-9.45251855-4.2393-9.45251855-9.4526v-14.30392c0-5.2133 4.23921855-9.45251833 9.45251855-9.45251833h14.30608c5.2112 0 9.4525 4.23921833 9.4525 9.45251833v14.30602c0 5.2112-4.2392 9.4526-9.4525 9.4526zm-14.30398-30.36255c-3.64173 0-6.60603 2.96219-6.60603 6.60603v14.30602c0 3.6418 2.96219 6.6061 6.60603 6.6061h14.30608c3.6417 0 6.606-2.9622 6.606-6.6061v-14.30602c0-3.64173-2.9622-6.60603-6.606-6.60603z"/><path d="m16.6043 25.1052c-4.6895 0-8.50371-3.8142-8.50371-8.5037 0-4.6894 3.81421-8.50368 8.50371-8.50368 4.6894 0 8.5037 3.81428 8.5037 8.50368 0 4.6895-3.8143 8.5037-8.5037 8.5037zm0-14.1588c-3.12 0-5.6572 2.5372-5.6572 5.6572s2.5372 5.6572 5.6572 5.6572 5.6572-2.5372 5.6572-5.6572-2.5372-5.6572-5.6572-5.6572z"/><path d="m27.5212 7.61623c0 1.12975-.9152 2.04282-2.0428 2.04282-1.1277 0-2.0429-.91517-2.0429-2.04282 0-1.12766.9152-2.04283 2.0429-2.04283 1.1276 0 2.0428.91517 2.0428 2.04283z"/></g></svg>