<svg width="58" height="58" viewBox="0 0 58 58" fill="none" xmlns="http://www.w3.org/2000/svg">
<path d="M52.0036 48.7809H52.6352V48.502H51.0547V48.7809H51.6806V50.3811H52.0036V48.7809Z" fill="#231F20"/>
<path d="M52.8525 50.3811H53.1493V48.7809L53.6688 50.3811H53.9611L54.4591 48.8041V50.3811H54.7537V48.502H54.2886L53.8161 50.0029L53.3272 48.502H52.8525V50.3811Z" fill="#231F20"/>
<path d="M29 58C45.0163 58 58 45.0163 58 29C58 12.9837 45.0163 0 29 0C12.9837 0 0 12.9837 0 29C0 45.0163 12.9837 58 29 58Z" fill="#097798"/>
<path d="M28.999 56.5849C44.2332 56.5849 56.5829 44.2351 56.5829 29.0009C56.5829 13.7667 44.2332 1.41699 28.999 1.41699C13.7648 1.41699 1.41504 13.7667 1.41504 29.0009C1.41504 44.2351 13.7648 56.5849 28.999 56.5849Z" fill="white"/>
<path d="M29.0017 56.0376C43.8814 56.0376 55.9438 43.9686 55.9438 29.0808C55.9438 14.193 43.8814 2.12402 29.0017 2.12402C14.122 2.12402 2.05957 14.193 2.05957 29.0808C2.05957 43.9686 14.122 56.0376 29.0017 56.0376Z" fill="#102A4D"/>
<path d="M46.4073 29.1055C46.4073 19.4931 38.6143 11.7002 29.002 11.7002C19.3897 11.7002 11.5967 19.4928 11.5967 29.1055C11.5967 38.7182 19.3887 46.5108 29.002 46.5108C38.6152 46.5108 46.4073 38.7179 46.4073 29.1055Z" fill="white"/>
<path d="M24.0054 33.7368L22.9897 34.214C22.9568 34.2333 22.9292 34.2604 22.9094 34.2929C22.8895 34.3254 22.878 34.3624 22.876 34.4004V41.9513C22.8782 41.9892 22.8897 42.026 22.9096 42.0584C22.9294 42.0907 22.9569 42.1177 22.9897 42.1368L24.006 42.6127C24.0186 42.6202 24.0331 42.6239 24.0478 42.6235C24.0624 42.6231 24.0767 42.6186 24.0889 42.6105C24.1012 42.6024 24.1109 42.591 24.1169 42.5776C24.123 42.5642 24.1252 42.5494 24.1232 42.5349V33.8146C24.1253 33.8 24.1231 33.7851 24.117 33.7716C24.111 33.7582 24.1012 33.7467 24.0889 33.7385C24.0765 33.7304 24.0621 33.7259 24.0474 33.7256C24.0326 33.7253 24.018 33.7292 24.0054 33.7368Z" fill="#102B4E"/>
<path d="M26.5988 33.0172L25.601 33.2235C25.5663 33.233 25.5355 33.2533 25.5132 33.2815C25.4908 33.3097 25.478 33.3442 25.4766 33.3802V42.9695C25.4779 43.0055 25.4907 43.0401 25.5131 43.0683C25.5355 43.0965 25.5663 43.1168 25.601 43.1263L26.599 43.3327C26.6144 43.3362 26.6304 43.3361 26.6458 43.3324C26.6612 43.3287 26.6756 43.3215 26.6877 43.3114C26.6998 43.3012 26.7095 43.2884 26.7158 43.2739C26.7222 43.2594 26.7251 43.2436 26.7244 43.2278V33.1221C26.725 33.1063 26.7221 33.0905 26.7157 33.0761C26.7093 33.0616 26.6996 33.0488 26.6875 33.0386C26.6753 33.0285 26.661 33.0213 26.6456 33.0175C26.6303 33.0138 26.6142 33.0137 26.5988 33.0172Z" fill="#102B4E"/>
<path d="M29.4728 32.8181C29.4728 32.8181 29.2444 32.8125 29.0642 32.8125C28.8246 32.8125 28.4815 32.8248 28.4815 32.8248C28.4473 32.8264 28.415 32.8411 28.3912 32.8657C28.3675 32.8903 28.354 32.9231 28.3535 32.9574V43.393C28.3539 43.4272 28.3673 43.4601 28.3911 43.4847C28.4149 43.5094 28.4473 43.524 28.4815 43.5256C28.4815 43.5256 28.8246 43.5378 29.0642 43.5378C29.2444 43.5378 29.4728 43.5312 29.4728 43.5312C29.5069 43.53 29.5391 43.5156 29.5629 43.4912C29.5866 43.4668 29.6001 43.4342 29.6004 43.4001V32.9492C29.6001 32.9151 29.5867 32.8825 29.5629 32.8581C29.5391 32.8337 29.5069 32.8194 29.4728 32.8181Z" fill="#102B4E"/>
<path d="M32.3505 33.1821L31.3536 32.9895C31.338 32.9863 31.322 32.9866 31.3065 32.9905C31.2911 32.9945 31.2768 33.0018 31.2647 33.0121C31.2526 33.0224 31.2429 33.0352 31.2365 33.0498C31.2301 33.0643 31.227 33.0801 31.2276 33.096V43.2542C31.227 43.2702 31.23 43.286 31.2364 43.3006C31.2428 43.3152 31.2524 43.3281 31.2645 43.3384C31.2767 43.3488 31.291 43.3562 31.3064 43.3601C31.3219 43.364 31.338 43.3644 31.3536 43.3612L32.3505 43.1687C32.3853 43.1599 32.4164 43.1401 32.439 43.1122C32.4615 43.0843 32.4744 43.0498 32.4757 43.0139V33.3372C32.4743 33.3013 32.4613 33.2668 32.4388 33.2389C32.4162 33.211 32.3853 33.191 32.3505 33.1821Z" fill="#102B4E"/>
<path d="M35.0122 34.1478L33.9978 33.69C33.9849 33.6827 33.9703 33.6792 33.9555 33.6797C33.9408 33.6803 33.9265 33.685 33.9142 33.6932C33.9019 33.7014 33.8922 33.7129 33.8861 33.7264C33.88 33.7398 33.8777 33.7547 33.8795 33.7693V42.5809C33.8777 42.5956 33.8799 42.6105 33.886 42.6239C33.8921 42.6374 33.9018 42.6489 33.9141 42.6572C33.9264 42.6654 33.9407 42.6702 33.9554 42.6708C33.9702 42.6714 33.9849 42.6679 33.9978 42.6607L35.0122 42.2041C35.0452 42.1854 35.0731 42.1588 35.0931 42.1266C35.1132 42.0943 35.1248 42.0576 35.1269 42.0197V34.3321C35.1248 34.2942 35.1132 34.2575 35.0931 34.2252C35.0731 34.193 35.0452 34.1664 35.0122 34.1478Z" fill="#102B4E"/>
<path d="M38.9796 28.1759H19.0221C19.0063 28.1752 18.9906 28.1782 18.9761 28.1845C18.9617 28.1909 18.9489 28.2006 18.9388 28.2127C18.9287 28.2249 18.9215 28.2392 18.9178 28.2545C18.9142 28.2699 18.9141 28.2859 18.9177 28.3013L19.3319 30.2788C19.3416 30.3135 19.362 30.3442 19.3903 30.3666C19.4185 30.3889 19.4531 30.4018 19.4891 30.4033H38.5138C38.5498 30.4018 38.5843 30.3889 38.6126 30.3665C38.6408 30.3442 38.6613 30.3135 38.671 30.2788L39.0847 28.3013C39.0882 28.2859 39.0881 28.2698 39.0844 28.2544C39.0807 28.239 39.0735 28.2246 39.0633 28.2125C39.0531 28.2003 39.0403 28.1907 39.0257 28.1844C39.0112 28.178 38.9954 28.1751 38.9796 28.1759Z" fill="#102B4E"/>
<path d="M37.6041 31.0207H20.4004C20.3848 31.0198 20.3693 31.0226 20.355 31.029C20.3407 31.0353 20.3282 31.045 20.3184 31.0571C20.3087 31.0693 20.3019 31.0836 20.2988 31.0989C20.2957 31.1142 20.2963 31.13 20.3006 31.1451L20.4721 31.8629C20.4824 31.8975 20.5033 31.9281 20.5319 31.9503C20.5604 31.9725 20.5952 31.9853 20.6313 31.9868H37.3726C37.4087 31.9853 37.4435 31.9725 37.472 31.9503C37.5006 31.9281 37.5215 31.8975 37.5318 31.8629L37.7039 31.1451C37.7081 31.13 37.7088 31.1142 37.7057 31.0989C37.7026 31.0836 37.6959 31.0692 37.6861 31.0571C37.6764 31.0449 37.6638 31.0352 37.6495 31.0289C37.6353 31.0226 37.6197 31.0197 37.6041 31.0207Z" fill="#102B4E"/>
<path d="M34.9296 19.2049L31.0336 18.8434C30.9529 18.8314 30.8764 18.8001 30.8104 18.7523C30.7444 18.7044 30.6909 18.6413 30.6545 18.5684L29.1073 14.9769C29.0776 14.9077 29.0382 14.874 28.9993 14.874C28.9604 14.874 28.9215 14.9077 28.8917 14.9769L27.3444 18.5687C27.3079 18.6416 27.2544 18.7047 27.1884 18.7525C27.1225 18.8004 27.0459 18.8317 26.9653 18.8438L23.0703 19.2053C22.9213 19.2196 22.8911 19.3117 23.0037 19.4105L25.9417 21.9922C25.9998 22.0493 26.0432 22.1196 26.0684 22.197C26.0935 22.2745 26.0996 22.3569 26.0862 22.4372L25.2275 26.2549C25.1947 26.4008 25.273 26.4577 25.4021 26.3808L28.7654 24.3829C28.8376 24.3453 28.9179 24.3257 28.9993 24.3257C29.0807 24.3257 29.1609 24.3453 29.2332 24.3829L32.5972 26.3808C32.7258 26.4577 32.8041 26.4008 32.7713 26.2549L31.9116 22.4372C31.8982 22.3568 31.9043 22.2744 31.9296 22.1969C31.9549 22.1194 31.9985 22.0492 32.0567 21.9922L34.9969 19.4105C35.1092 19.3114 35.0791 19.2194 34.9296 19.2049Z" fill="#C6922C"/>
<path d="M10.6217 35.0853C10.1311 33.6075 8.54885 32.8457 7.07117 33.3356C6.55245 33.5153 6.09845 33.8444 5.76632 34.2814C5.43418 34.7185 5.23874 35.2441 5.20461 35.7919C5.17047 36.3398 5.29915 36.8856 5.57446 37.3605C5.84977 37.8354 6.25941 38.2183 6.75182 38.461C7.24423 38.7036 7.79742 38.7952 8.34176 38.7242C8.8861 38.6532 9.39728 38.4228 9.81096 38.0619C10.2246 37.701 10.5223 37.2259 10.6666 36.6962C10.8109 36.1666 10.7952 35.6061 10.6217 35.0853ZM6.31189 36.5143C6.00008 35.5732 6.51724 34.8144 7.45832 34.5025C8.3994 34.1906 9.2745 34.4872 9.5868 35.4283C9.89909 36.3694 9.37709 37.1382 8.43577 37.4503C7.49445 37.7624 6.62418 37.4555 6.31189 36.5143Z" fill="white"/>
<path d="M10.3571 45.7495L11.1959 43.2304C11.4798 43.4002 11.8072 43.4831 12.1377 43.4689C12.4682 43.4547 12.7873 43.344 13.0556 43.1506C13.8385 42.5971 14.0526 41.5228 13.4519 40.6734L11.7403 38.251L7.28418 41.4003L7.99394 42.4039L9.593 41.2738L10.2544 42.2108L9.47799 44.5048L10.3571 45.7495ZM11.6395 39.8268L12.5003 41.0447C12.5623 41.1256 12.6072 41.2183 12.6322 41.3172C12.6571 41.4161 12.6617 41.519 12.6455 41.6196C12.6293 41.7203 12.5927 41.8166 12.5379 41.9026C12.4832 41.9887 12.4115 42.0626 12.3272 42.12C12.2442 42.1814 12.1497 42.2256 12.0493 42.2497C11.9489 42.2739 11.8447 42.2776 11.7428 42.2606C11.641 42.2437 11.5435 42.2064 11.4564 42.151C11.3692 42.0956 11.2941 42.0232 11.2355 41.9382L10.3754 40.7203L11.6395 39.8268Z" fill="white"/>
<path d="M13.3369 46.9649L16.1695 43.5967L15.2289 42.8057L11.7158 46.9828L14.6703 49.4672L15.3508 48.6581L13.3369 46.9649Z" fill="white"/>
<path d="M19.694 46.0797L18.5446 45.5195L16.1514 50.4248L17.3003 50.9855C19.2004 51.9122 20.9414 51.5036 21.6423 50.0674C22.3433 48.6312 21.5942 47.007 19.694 46.0797ZM20.4933 49.5067C19.9829 50.5528 18.9496 50.5774 17.9844 50.1064L17.7344 49.9839L19.1722 47.0378L19.4222 47.1601C20.3866 47.6312 21.0033 48.4607 20.4933 49.5067Z" fill="white"/>
<path d="M26.0352 53.8141L27.2635 53.8417L27.308 51.8837L28.455 51.9098L29.8359 53.9001L31.3593 53.9344L29.8354 51.7608C30.1408 51.6338 30.4023 51.42 30.5877 51.1461C30.773 50.8721 30.8741 50.5499 30.8784 50.2191C30.8999 49.2611 30.1647 48.4495 29.1242 48.4254L26.159 48.3584L26.0352 53.8141ZM27.3649 49.3773L28.8559 49.4111C29.2819 49.4209 29.6275 49.7321 29.6168 50.191C29.6166 50.2941 29.5957 50.3962 29.5552 50.4911C29.5148 50.586 29.4557 50.6718 29.3815 50.7435C29.3073 50.8151 29.2194 50.8711 29.1231 50.9081C29.0268 50.9451 28.9241 50.9624 28.821 50.9589L27.3305 50.9245L27.3649 49.3773Z" fill="white"/>
<path d="M33.8517 51.0699L36.395 50.4325L36.138 49.4074L33.5948 50.0448L33.3377 49.0198L36.032 48.3444L35.7749 47.3193L31.8887 48.2932L33.2153 53.5861L37.1016 52.6122L36.8446 51.5866L34.1503 52.2619L33.8517 51.0699Z" fill="white"/>
<path d="M39.4211 46.5744C39.7627 46.3897 40.1287 46.2543 40.5082 46.1724L40.2624 45.1504C39.7313 45.2457 39.2203 45.4308 38.7514 45.6977C37.1589 46.5595 36.6746 48.2471 37.4155 49.6158C38.1564 50.9844 39.8522 51.5021 41.4303 50.6481C41.9011 50.3998 42.3258 50.0724 42.6858 49.6803L41.9941 48.9184C41.7178 49.1912 41.4042 49.4234 41.0627 49.6081C39.8814 50.2476 38.9685 49.9035 38.4964 49.0315C38.0244 48.1595 38.2399 47.2139 39.4211 46.5744Z" fill="white"/>
<path d="M46.2497 47.0206C46.7809 46.5021 47.0858 45.7947 47.098 45.0525C47.1102 44.3103 46.8287 43.5934 46.3149 43.0577C45.801 42.522 45.0964 42.211 44.3543 42.1923C43.6122 42.1736 42.8928 42.4488 42.3527 42.958C41.2288 44.0358 41.2211 45.792 42.2989 46.9155C43.3767 48.0389 45.1263 48.0988 46.2497 47.0206ZM43.1069 43.744C43.8227 43.0574 44.7413 43.1982 45.4279 43.9141C46.1145 44.6299 46.2108 45.5474 45.4955 46.2341C44.7802 46.9208 43.8724 46.7799 43.1863 46.0647C42.5001 45.3496 42.3908 44.4307 43.1069 43.744Z" fill="white"/>
<path d="M51.3616 39.9456L52.1097 38.6175L49.4735 38.9394C49.5053 38.61 49.4399 38.2785 49.2854 37.9859C49.1309 37.6932 48.8941 37.4522 48.6042 37.2927C47.7685 36.8227 46.7055 37.0889 46.195 37.9963L44.7393 40.5815L49.4956 43.2599L50.0988 42.1887L48.3921 41.2271L48.9548 40.2277L51.3616 39.9456ZM48.2886 39.4567L47.5569 40.7567L46.2067 39.9963L46.9389 38.6968C46.9855 38.606 47.0501 38.5258 47.1287 38.4609C47.2074 38.396 47.2985 38.3478 47.3964 38.3193C47.4943 38.2908 47.597 38.2825 47.6982 38.2951C47.7994 38.3076 47.897 38.3406 47.985 38.3921C48.0761 38.4408 48.1564 38.5073 48.2213 38.5877C48.2862 38.6681 48.3342 38.7607 48.3626 38.86C48.3909 38.9593 48.3989 39.0634 48.3862 39.1659C48.3735 39.2684 48.3403 39.3673 48.2886 39.4567Z" fill="white"/>
<path d="M53.0041 35.5001C53.4834 33.4408 52.6964 31.8356 51.1399 31.473C49.5833 31.1105 48.1675 32.2031 47.6882 34.2625L47.3984 35.5078L52.7143 36.7453L53.0041 35.5001ZM51.9949 35.0296L51.9314 35.301L48.7389 34.5575L48.8019 34.2861C49.0451 33.2405 49.7164 32.4546 50.8495 32.7182C51.9826 32.9819 52.2381 33.9835 51.9949 35.0296Z" fill="white"/>
<path d="M52.2108 25.8934C51.2031 25.9268 51.0413 26.4903 50.6291 27.6598C50.239 28.7715 50.1524 29.1191 49.8084 29.1304C49.4889 29.1411 49.3728 28.8738 49.3481 28.1042C49.3287 27.5048 49.3832 26.9054 49.5103 26.3193L48.5052 26.1636C48.3496 26.8158 48.2778 27.4851 48.2917 28.1554C48.3429 29.7033 48.8739 30.3915 49.8816 30.3577C50.8401 30.3265 51.1309 29.7017 51.5492 28.4575C51.8928 27.4457 51.9481 27.1324 52.284 27.1217C52.6937 27.1078 52.8626 27.5124 52.8857 28.2087C52.9066 28.8395 52.7904 29.5405 52.5918 30.2353L53.5421 30.4586C53.811 29.722 53.941 28.942 53.9256 28.158C53.8816 26.8141 53.2343 25.8597 52.2108 25.8934Z" fill="white"/>
<path d="M11.3099 13.2038L10.5854 12.4502C10.1783 12.7927 9.812 13.181 9.49381 13.6073C8.43538 15.0057 8.5537 16.7502 9.88652 17.7589C11.1281 18.699 12.8304 18.5279 13.9925 16.9927C14.3043 16.5813 14.7548 15.7817 14.9028 15.3691L12.7926 13.7712L12.0999 14.6857L13.4987 15.7445C13.3709 15.9811 13.2239 16.2068 13.0593 16.4195C12.3818 17.3147 11.4194 17.3774 10.6288 16.7789C9.74651 16.1112 9.64561 15.2125 10.4572 14.1409C10.7107 13.8018 10.9962 13.488 11.3099 13.2038Z" fill="white"/>
<path d="M16.9656 12.6417C16.3916 13.0646 15.6938 12.9873 15.2278 12.3539L13.3389 9.78609L12.3486 10.5147L14.2375 13.0819C14.9856 14.0988 16.4219 14.4046 17.6164 13.5263C18.811 12.648 18.9462 11.1848 18.1981 10.1684L16.3092 7.60059L15.3189 8.32922L17.2078 10.897C17.6743 11.5306 17.5401 12.2198 16.9656 12.6417Z" fill="white"/>
<path d="M19.5522 6.11111L18.4277 6.60742L20.6314 11.6001L21.7559 11.1037L19.5522 6.11111Z" fill="white"/>
<path d="M26.6395 9.81085L27.8146 9.58607L26.79 4.22559L25.599 4.45352L26.2775 8.00289L23.0072 4.94858L21.832 5.17336L22.8566 10.5338L24.0475 10.306L23.3707 6.76476L26.6395 9.81085Z" fill="white"/>
<path d="M30.0968 9.70393L30.5449 6.12641L32.7149 10.0316L33.9017 10.1801L34.5796 4.76544L33.3764 4.61486L32.9278 8.20013L30.7584 4.28716L29.5715 4.13867L28.8936 9.55343L30.0968 9.70393Z" fill="white"/>
<path d="M36.9906 8.95649L39.3951 10.004L39.8176 9.03481L37.4131 7.98718L37.8355 7.01787L40.3828 8.12792L40.8053 7.1587L37.1304 5.55762L34.9502 10.5616L38.6245 12.1628L39.0469 11.1935L36.4996 10.0834L36.9906 8.95649Z" fill="white"/>
<path d="M41.526 13.1271C41.0313 12.7354 40.5721 12.1936 40.1696 11.5925L39.3857 12.1737C39.7738 12.8549 40.2847 13.4582 40.8926 13.9532C41.9459 14.7878 43.0923 14.9118 43.7283 14.1084C44.3539 13.318 44.0293 12.8314 43.4036 11.7602C42.8076 10.7448 42.5987 10.4536 42.8122 10.1842C43.0109 9.93329 43.289 10.0178 43.8926 10.496C44.3626 10.8685 44.7846 11.2978 45.1491 11.7741L45.9177 11.1074C45.5208 10.5671 45.0566 10.0798 44.5362 9.65729C43.3222 8.69572 42.4543 8.65628 41.8286 9.44638C41.2331 10.198 41.5214 10.8237 42.2004 11.9467C42.7498 12.8632 42.953 13.1081 42.7446 13.3712C42.4901 13.6919 42.0718 13.5598 41.526 13.1271Z" fill="white"/>
<path d="M49.9924 16.1307C49.7492 15.5064 49.4272 14.9157 49.0344 14.3729C48.1107 13.1297 47.2827 12.8671 46.4737 13.4682C45.7041 14.0395 45.8209 14.7183 46.1855 15.9786C46.4788 17.0058 46.6115 17.2945 46.3421 17.495C46.0129 17.7397 45.6437 17.503 45.2285 16.9445C44.8526 16.4381 44.549 15.7955 44.3161 15.1114L43.4082 15.4693C43.6068 16.2276 43.9441 16.9425 44.4031 17.5779C45.2044 18.6567 46.2786 19.0731 47.101 18.4622C47.9099 17.8615 47.7226 17.3065 47.3954 16.1104C47.083 14.9752 46.9566 14.6403 47.2331 14.4351C47.4896 14.2446 47.7359 14.3981 48.1951 15.0162C48.5525 15.4977 48.849 16.0216 49.0779 16.5758L49.9924 16.1307Z" fill="white"/>
<path d="M9.62263 32.5388L9.60263 31.3258L6.40297 30.6325L9.57343 29.5475L9.56013 28.7037L6.35531 27.7231L9.53093 26.9255L9.51101 25.7129L4.0752 27.1292L4.09108 28.1046L7.51811 29.1553L4.12746 30.3253L4.14335 31.3002L9.62263 32.5388Z" fill="white"/>
</svg>
