<svg fill="none" height="32" viewBox="0 0 219 32" width="219" xmlns="http://www.w3.org/2000/svg"><path d="m11.5516 17.1422h-3.23447v13.944h-4.15856v-24.68072c0-1.37065-.19407-2.47629-.57296-3.31696-.38814-.84066-1.2753-1.26099-2.661484-1.26099h-.924126v-.913767h12.0229c.9888 0 2.1439.082238 3.4654.255857 1.3215.16447 2.5876.53911 3.789 1.12392 1.2013.57567 2.2179 1.40721 3.0496 2.49459.8317 1.07824 1.2475 2.54026 1.2475 4.36778 0 1.30669-.231 2.42149-.6931 3.33519-.462.9138-1.0535 1.6722-1.7835 2.2662-.7208.5939-1.5248 1.06-2.4027 1.398-.878.3381-1.7189.594-2.5229.7767l4.8517 7.9955c.5822.9777 1.1366 1.7818 1.6449 2.4214.5083.6397 1.0073 1.1697 1.5063 1.5809.4898.4111.9888.7127 1.4786.8954.4898.1828 1.035.3016 1.6172.3656v.9137c-.2495.1188-.6191.2285-1.1366.3198-.5083.0914-1.0535.1371-1.645.1371-.804 0-1.5525-.1097-2.2456-.3198-.6931-.2102-1.3677-.5757-2.0146-1.0965-.6469-.5209-1.303-1.2062-1.9684-2.056-.6653-.8498-1.3677-1.9006-2.107-3.1525zm.231-1.5991c.6469 0 1.3769-.1188 2.1994-.3655s1.5988-.6213 2.3381-1.1239 1.3677-1.1605 1.8759-1.9646c.5083-.8041.7671-1.791.7671-2.95146 0-1.1879-.2588-2.21132-.7671-3.06112-.5082-.8498-1.1366-1.53512-1.8759-2.05597-.7393-.52084-1.5156-.89548-2.3381-1.1422-.8132-.24672-1.5525-.3655-2.1994-.3655-.5822 0-1.1921.04568-1.82977.13706-.6284.09137-1.18288.20103-1.64494.31982v12.11647c.46206.1188 1.00729.2285 1.64494.3199.63767.0913 1.24757.137 1.82977.137zm17.3366.4569c0-2.2205.3327-4.313.9981-6.25928.6653-1.94631 1.6172-3.64592 2.8647-5.0988 1.2476-1.44375 2.7539-2.58595 4.5283-3.40833 1.7743-.822391 3.7519-1.23359 5.9421-1.23359s4.1678.411199 5.9421 1.23359c1.7743.82238 3.2807 1.95545 4.5282 3.40833 1.2476 1.44375 2.1995 3.14335 2.8648 5.0988.6654 1.94628.9981 4.03878.9981 6.25928 0 2.257-.3327 4.3495-.9981 6.2867-.6653 1.9372-1.6172 3.6276-2.8648 5.0714-1.2475 1.4437-2.7539 2.5859-4.5282 3.4083s-3.7519 1.2336-5.9421 1.2336-4.1678-.4112-5.9421-1.2336c-1.7744-.8224-3.2807-1.9554-4.5283-3.4083-1.2475-1.4529-2.1994-3.1342-2.8647-5.0714-.6654-1.9372-.9981-4.0297-.9981-6.2867zm24.0458 0c0-2.1656-.2218-4.1211-.6747-5.8755-.4528-1.75442-1.0904-3.24385-1.9221-4.47743s-1.8483-2.17477-3.0497-2.83268c-1.2013-.65791-2.5598-.98686-4.0661-.98686s-2.8648.32895-4.0662.98686c-1.2013.65791-2.2179 1.5991-3.0496 2.83268s-1.4693 2.73214-1.9222 4.47743c-.4528 1.7453-.6746 3.7099-.6746 5.8755s.2218 4.1211.6746 5.8755c.4529 1.7544 1.0905 3.2439 1.9222 4.4774.8317 1.2336 1.8483 2.1748 3.0496 2.8327 1.2014.6579 2.5599.9869 4.0662.9869s2.8648-.329 4.0661-.9869c1.2014-.6579 2.218-1.5991 3.0497-2.8327.8317-1.2335 1.4693-2.723 1.9221-4.4774.4529-1.7544.6747-3.7099.6747-5.8755zm36.5676 15.0862c-.5268.1554-1.1367.2285-1.8482.2285-.5268 0-1.1367-.064-1.8298-.1828s-1.4047-.3838-2.1255-.8041c-.7208-.4112-1.4324-1.0143-2.1255-1.8092-.6931-.795-1.2845-1.8458-1.7835-3.1525l-1.1552-2.9698h-12.947l-3.6965 8.6808h-2.0793l12.947-30.172469h1.3862l10.1746 24.452269c.3697.8498.7208 1.5809 1.0443 2.1748.3234.5939.6838 1.0782 1.0812 1.4437.3974.3656.8317.6397 1.2938.8224.462.1828 1.0165.3016 1.6634.3655zm-23.1216-10.5174h11.3298l-5.5448-13.25869zm44.755 2.8327c0 1.2793-.221 2.4397-.674 3.4723-.453 1.0325-1.091 1.928-1.922 2.6773-.832.7493-1.839 1.3158-3.032 1.7179-1.192.3929-2.522.5939-4.001.5939-1.266 0-2.5229-.1279-3.7704-.3929-1.2476-.265-2.375-.6305-3.3731-1.1239-.998-.4843-1.8205-1.0783-2.4489-1.7636s-.9519-1.4529-.9519-2.3118v-4.8886h.9242c.5175 3.0793 1.5432 5.2907 3.0588 6.6247 1.5156 1.3433 3.5764 2.0103 6.1823 2.0103.795 0 1.553-.1005 2.273-.3015.721-.201 1.359-.4934 1.904-.8955.545-.402.998-.8863 1.331-1.462s.508-1.2519.508-2.0103c0-1.3432-.425-2.4854-1.275-3.4266s-2.116-1.9006-3.817-2.8784l-5.6831-3.3352c-1.9684-1.1605-3.3639-2.3301-4.1863-3.518-.8133-1.1879-1.2291-2.63164-1.2291-4.34037 0-1.1879.2125-2.257.6469-3.19818.4343-.94117 1.035-1.76355 1.8297-2.44888.7855-.68532 1.7282-1.215298 2.8186-1.580804 1.0905-.365505 2.3196-.5482633 3.6783-.5482633 1.136 0 2.301.1187833 3.493.3655003 1.183.246716 2.255.603087 3.216 1.078247.952.47516 1.737 1.05082 2.356 1.73615.62.68532.925 1.45288.925 2.31182v4.88868h-.925c-.517-3.07943-1.515-5.27246-2.985-6.57914-1.469-1.30668-3.502-1.9646-6.108-1.9646-.6746 0-1.3307.10966-1.9776.31982-.6469.21017-1.2106.52085-1.7004.91377s-.8872.88635-1.1921 1.46203c-.305.57567-.4621 1.21529-.4621 1.91889 0 .66705.1109 1.26099.3235 1.78184.2125.52084.536 1.00514.9703 1.46202.4343.45687.9703.90467 1.6172 1.35237.6469.4386 1.3862.9046 2.2179 1.3981l5.6833 3.3352c.989.5757 1.839 1.1331 2.569 1.6722.721.53 1.322 1.0965 1.784 1.6904.462.594.813 1.2245 1.044 1.9007.249.6762.36 1.4346.36 2.2844zm28.621-22.487737v1.827527h-10.406v28.34491h-4.159v-28.34491h-4.158c-1.848 0-3.272.42034-4.279 1.261-.998.84066-1.506 2.17475-1.506 4.00227h-.924v-3.42661c0-.45688.055-.90462.157-1.35237.111-.4386.305-.83152.6-1.16961.296-.33809.694-.61222 1.202-.82238.508-.21017 1.164-.319827 1.968-.319827zm21.218 0c.803 0 1.46.109657 1.968.319827.508.21016.906.48429 1.201.82238.296.33809.49.72187.601 1.16961.111.43861.157.89549.157 1.35237v3.42661h-.924c0-1.82752-.499-3.16161-1.506-4.00227-.998-.84066-2.431-1.261-4.279-1.261h-8.594v11.88801h12.484v1.8276h-12.484v12.8018h8.086c2.097 0 3.752-.3838 4.971-1.1422 1.22-.7584 2.181-2.056 2.893-3.8835l.924.2285-1.617 4.3403c-.25.7036-.656 1.261-1.229 1.6722s-1.322.6214-2.246.6214h-15.95v-24.68078c0-1.37064-.194-2.4763-.573-3.31696-.388-.84066-1.276-1.261-2.662-1.261h-.924v-.913764h19.703zm19.369 16.228437h-3.234v13.944h-4.159v-24.68072c0-1.37065-.194-2.47629-.573-3.31696-.388-.84066-1.275-1.26099-2.661-1.26099h-.924v-.913767h12.022c.989 0 2.144.082238 3.466.255857 1.321.16447 2.588.53911 3.789 1.12392 1.201.57567 2.218 1.40721 3.049 2.49459.832 1.07824 1.248 2.54026 1.248 4.36778 0 1.30669-.231 2.42149-.693 3.33519-.462.9138-1.054 1.6722-1.784 2.2662-.72.5939-1.524 1.06-2.402 1.398-.878.3381-1.719.594-2.523.7767l4.851 7.9955c.583.9777 1.137 1.7818 1.645 2.4214.509.6397 1.008 1.1697 1.507 1.5809.49.4111.989.7127 1.478.8954.49.1828 1.035.3016 1.618.3656v.9137c-.25.1188-.62.2285-1.137.3198-.508.0914-1.054.1371-1.645.1371-.804 0-1.553-.1097-2.246-.3198-.693-.2102-1.367-.5757-2.014-1.0965-.647-.5209-1.303-1.2062-1.969-2.056-.665-.8498-1.367-1.9006-2.107-3.1525zm.231-1.5991c.647 0 1.377-.1188 2.2-.3655.822-.2467 1.598-.6213 2.338-1.1239.739-.5026 1.367-1.1605 1.876-1.9646.508-.8041.767-1.791.767-2.95146 0-1.1879-.259-2.21132-.767-3.06112-.509-.8498-1.137-1.53512-1.876-2.05597-.74-.52084-1.516-.89548-2.338-1.1422-.814-.24672-1.553-.3655-2.2-.3655-.582 0-1.192.04568-1.83.13706-.628.09137-1.182.20103-1.645.31982v12.11647c.463.1188 1.008.2285 1.645.3199.638.0913 1.248.137 1.83.137zm37.862 7.8584c0 1.2793-.222 2.4397-.675 3.4723-.453 1.0325-1.09 1.928-1.922 2.6773s-1.839 1.3158-3.031 1.7179c-1.192.3929-2.523.5939-4.002.5939-1.266 0-2.523-.1279-3.77-.3929-1.248-.265-2.375-.6305-3.373-1.1239-.998-.4843-1.821-1.0783-2.449-1.7636-.629-.6853-.952-1.4529-.952-2.3118v-4.8886h.924c.518 3.0793 1.543 5.2907 3.059 6.6247 1.516 1.3433 3.576 2.0103 6.182 2.0103.795 0 1.553-.1005 2.274-.3015s1.358-.4934 1.903-.8955c.546-.402.998-.8863 1.331-1.462s.508-1.2519.508-2.0103c0-1.3432-.425-2.4854-1.275-3.4266s-2.116-1.9006-3.817-2.8784l-5.683-3.3352c-1.968-1.1605-3.364-2.3301-4.186-3.518-.813-1.1879-1.229-2.63164-1.229-4.34037 0-1.1879.212-2.257.647-3.19818.434-.94117 1.035-1.76355 1.829-2.44888.786-.68532 1.729-1.215298 2.819-1.580804 1.09-.365505 2.32-.5482633 3.678-.5482633 1.137 0 2.301.1187833 3.493.3655003 1.183.246716 2.255.603087 3.216 1.078247.952.47516 1.737 1.05082 2.357 1.73615.619.68532.924 1.45288.924 2.31182v4.88868h-.924c-.518-3.07943-1.516-5.27246-2.985-6.57914-1.47-1.30668-3.503-1.9646-6.109-1.9646-.674 0-1.33.10966-1.977.31982-.647.21017-1.211.52085-1.701.91377s-.887.88635-1.192 1.46203c-.305.57567-.462 1.21529-.462 1.91889 0 .66705.111 1.26099.324 1.78184.212.52084.535 1.00514.97 1.46202.434.45687.97.90467 1.617 1.35237.647.4386 1.386.9046 2.218 1.3981l5.683 3.3352c.989.5757 1.839 1.1331 2.569 1.6722.721.53 1.322 1.0965 1.784 1.6904.462.594.813 1.2245 1.044 1.9007.25.6762.361 1.4346.361 2.2844z" fill="#000"/></svg>