<svg fill="none" height="58" viewBox="0 0 58 58" width="58" xmlns="http://www.w3.org/2000/svg"><path d="m52.0036 48.7809h.6316v-.2789h-1.5805v.2789h.6259v1.6002h.323z" fill="#231f20"/><path d="m52.8525 50.3811h.2968v-1.6002l.5195 1.6002h.2923l.498-1.577v1.577h.2946v-1.8791h-.4651l-.4725 1.5009-.4889-1.5009h-.4747z" fill="#231f20"/><path d="m29 58c16.0163 0 29-12.9837 29-29s-12.9837-29-29-29-29 12.9837-29 29 12.9837 29 29 29z" fill="#097798"/><path d="m28.999 56.5849c15.2342 0 27.5839-12.3498 27.5839-27.584s-12.3497-27.58391-27.5839-27.58391-27.58396 12.34971-27.58396 27.58391 12.34976 27.584 27.58396 27.584z" fill="#fff"/><path d="m29.0017 56.0376c14.8797 0 26.9421-12.069 26.9421-26.9568s-12.0624-26.95678-26.9421-26.95678-26.94213 12.06898-26.94213 26.95678 12.06243 26.9568 26.94213 26.9568z" fill="#102a4d"/><path d="m46.4073 29.1055c0-9.6124-7.793-17.4053-17.4053-17.4053s-17.4053 7.7926-17.4053 17.4053 7.792 17.4053 17.4053 17.4053c9.6132 0 17.4053-7.7929 17.4053-17.4053z" fill="#fff"/><path d="m24.0054 33.7368-1.0157.4772c-.0329.0193-.0605.0464-.0803.0789-.0199.0325-.0314.0695-.0334.1075v7.5509c.0022.0379.0137.0747.0336.1071.0198.0323.0473.0593.0801.0784l1.0163.4759c.0126.0075.0271.0112.0418.0108.0146-.0004.0289-.0049.0411-.013.0123-.0081.022-.0195.028-.0329.0061-.0134.0083-.0282.0063-.0427v-8.7203c.0021-.0146-.0001-.0295-.0062-.043-.006-.0134-.0158-.0249-.0281-.0331-.0124-.0081-.0268-.0126-.0415-.0129-.0148-.0003-.0294.0036-.042.0112z" fill="#102b4e"/><path d="m26.5988 33.0172-.9978.2063c-.0347.0095-.0655.0298-.0878.058-.0224.0282-.0352.0627-.0366.0987v9.5893c.0013.036.0141.0706.0365.0988s.0532.0485.0879.058l.998.2064c.0154.0035.0314.0034.0468-.0003s.0298-.0109.0419-.021c.0121-.0102.0218-.023.0281-.0375.0064-.0145.0093-.0303.0086-.0461v-10.1057c.0006-.0158-.0023-.0316-.0087-.046-.0064-.0145-.0161-.0273-.0282-.0375-.0122-.0101-.0265-.0173-.0419-.0211-.0153-.0037-.0314-.0038-.0468-.0003z" fill="#102b4e"/><path d="m29.4728 32.8181s-.2284-.0056-.4086-.0056c-.2396 0-.5827.0123-.5827.0123-.0342.0016-.0665.0163-.0903.0409-.0237.0246-.0372.0574-.0377.0917v10.4356c.0004.0342.0138.0671.0376.0917.0238.0247.0562.0393.0904.0409 0 0 .3431.0122.5827.0122.1802 0 .4086-.0066.4086-.0066.0341-.0012.0663-.0156.0901-.04.0237-.0244.0372-.057.0375-.0911v-10.4509c-.0003-.0341-.0137-.0667-.0375-.0911s-.056-.0387-.0901-.04z" fill="#102b4e"/><path d="m32.3505 33.1821-.9969-.1926c-.0156-.0032-.0316-.0029-.0471.001-.0154.004-.0297.0113-.0418.0216s-.0218.0231-.0282.0377c-.0064.0145-.0095.0303-.0089.0462v10.1582c-.0006.016.0024.0318.0088.0464s.016.0275.0281.0378c.0122.0104.0265.0178.0419.0217.0155.0039.0316.0043.0472.0011l.9969-.1925c.0348-.0088.0659-.0286.0885-.0565.0225-.0279.0354-.0624.0367-.0983v-9.6767c-.0014-.0359-.0144-.0704-.0369-.0983-.0226-.0279-.0535-.0479-.0883-.0568z" fill="#102b4e"/><path d="m35.0122 34.1478-1.0144-.4578c-.0129-.0073-.0275-.0108-.0423-.0103-.0147.0006-.029.0053-.0413.0135s-.022.0197-.0281.0332c-.0061.0134-.0084.0283-.0066.0429v8.8116c-.0018.0147.0004.0296.0065.043.0061.0135.0158.025.0281.0333.0123.0082.0266.013.0413.0136.0148.0006.0295-.0029.0424-.0101l1.0144-.4566c.033-.0187.0609-.0453.0809-.0775.0201-.0323.0317-.069.0338-.1069v-7.6876c-.0021-.0379-.0137-.0746-.0338-.1069-.02-.0322-.0479-.0588-.0809-.0774z" fill="#102b4e"/><path d="m38.9796 28.1759h-19.9575c-.0158-.0007-.0315.0023-.046.0086-.0144.0064-.0272.0161-.0373.0282-.0101.0122-.0173.0265-.021.0418-.0036.0154-.0037.0314-.0001.0468l.4142 1.9775c.0097.0347.0301.0654.0584.0878.0282.0223.0628.0352.0988.0367h19.0247c.036-.0015.0705-.0144.0988-.0368.0282-.0223.0487-.053.0584-.0877l.4137-1.9775c.0035-.0154.0034-.0315-.0003-.0469s-.0109-.0298-.0211-.0419c-.0102-.0122-.023-.0218-.0376-.0281-.0145-.0064-.0303-.0093-.0461-.0085z" fill="#102b4e"/><path d="m37.6041 31.0207h-17.2037c-.0156-.0009-.0311.0019-.0454.0083-.0143.0063-.0268.016-.0366.0281-.0097.0122-.0165.0265-.0196.0418s-.0025.0311.0018.0462l.1715.7178c.0103.0346.0312.0652.0598.0874.0285.0222.0633.035.0994.0365h16.7413c.0361-.0015.0709-.0143.0994-.0365.0286-.0222.0495-.0528.0598-.0874l.1721-.7178c.0042-.0151.0049-.0309.0018-.0462s-.0098-.0297-.0196-.0418c-.0097-.0122-.0223-.0219-.0366-.0282-.0142-.0063-.0298-.0092-.0454-.0082z" fill="#102b4e"/><path d="m34.9296 19.2049-3.896-.3615c-.0807-.012-.1572-.0433-.2232-.0911-.066-.0479-.1195-.111-.1559-.1839l-1.5472-3.5915c-.0297-.0692-.0691-.1029-.108-.1029s-.0778.0337-.1076.1029l-1.5473 3.5918c-.0365.0729-.09.136-.156.1838-.0659.0479-.1425.0792-.2231.0913l-3.895.3615c-.149.0143-.1792.1064-.0666.2052l2.938 2.5817c.0581.0571.1015.1274.1267.2048.0251.0775.0312.1599.0178.2402l-.8587 3.8177c-.0328.1459.0455.2028.1746.1259l3.3633-1.9979c.0722-.0376.1525-.0572.2339-.0572s.1616.0196.2339.0572l3.364 1.9979c.1286.0769.2069.02.1741-.1259l-.8597-3.8177c-.0134-.0804-.0073-.1628.018-.2403s.0689-.1477.1271-.2047l2.9402-2.5817c.1123-.0991.0822-.1911-.0673-.2056z" fill="#c6922c"/><g fill="#fff"><path d="m10.6217 35.0853c-.4906-1.4778-2.07285-2.2396-3.55053-1.7497-.51872.1797-.97272.5088-1.30485.9458-.33214.4371-.52758.9627-.56171 1.5105-.03414.5479.09454 1.0937.36985 1.5686s.68495.8578 1.17736 1.1005c.49241.2426 1.0456.3342 1.58994.2632s1.05552-.3014 1.4692-.6623c.41364-.3609.71134-.836.85564-1.3657.1443-.5296.1286-1.0901-.0449-1.6109zm-4.30981 1.429c-.31181-.9411.20535-1.6999 1.14643-2.0118s1.81618-.0153 2.12848.9258c.31229.9411-.20971 1.7099-1.15103 2.022s-1.81159.0052-2.12388-.936z"/><path d="m10.3571 45.7495.8388-2.5191c.2839.1698.6113.2527.9418.2385s.6496-.1249.9179-.3183c.7829-.5535.997-1.6278.3963-2.4772l-1.7116-2.4224-4.45612 3.1493.70976 1.0036 1.59906-1.1301.6614.937-.77641 2.294zm1.2824-5.9227.8608 1.2179c.062.0809.1069.1736.1319.2725.0249.0989.0295.2018.0133.3024-.0162.1007-.0528.197-.1076.283-.0547.0861-.1264.16-.2107.2174-.083.0614-.1775.1056-.2779.1297-.1004.0242-.2046.0279-.3065.0109-.1018-.0169-.1993-.0542-.2864-.1096-.0872-.0554-.1623-.1278-.2209-.2128l-.8601-1.2179z"/><path d="m13.3369 46.9649 2.8326-3.3682-.9406-.791-3.5131 4.1771 2.9545 2.4844.6805-.8091z"/><path d="m19.694 46.0797-1.1494-.5602-2.3932 4.9053 1.1489.5607c1.9001.9267 3.6411.5181 4.342-.9181.701-1.4362-.0481-3.0604-1.9483-3.9877zm.7993 3.427c-.5104 1.0461-1.5437 1.0707-2.5089.5997l-.25-.1225 1.4378-2.9461.25.1223c.9644.4711 1.5811 1.3006 1.0711 2.3466z"/><path d="m26.0352 53.8141 1.2283.0276.0445-1.958 1.147.0261 1.3809 1.9903 1.5234.0343-1.5239-2.1736c.3054-.127.5669-.3408.7523-.6147.1853-.274.2864-.5962.2907-.927.0215-.958-.7137-1.7696-1.7542-1.7937l-2.9652-.067zm1.3297-4.4368 1.491.0338c.426.0098.7716.321.7609.7799-.0002.1031-.0211.2052-.0616.3001-.0404.0949-.0995.1807-.1737.2524-.0742.0716-.1621.1276-.2584.1646s-.199.0543-.3021.0508l-1.4905-.0344z"/><path d="m33.8517 51.0699 2.5433-.6374-.257-1.0251-2.5432.6374-.2571-1.025 2.6943-.6754-.2571-1.0251-3.8862.9739 1.3266 5.2929 3.8863-.9739-.257-1.0256-2.6943.6753z"/><path d="m39.4211 46.5744c.3416-.1847.7076-.3201 1.0871-.402l-.2458-1.022c-.5311.0953-1.0421.2804-1.511.5473-1.5925.8618-2.0768 2.5494-1.3359 3.9181.7409 1.3686 2.4367 1.8863 4.0148 1.0323.4708-.2483.8955-.5757 1.2555-.9678l-.6917-.7619c-.2763.2728-.5899.505-.9314.6897-1.1813.6395-2.0942.2954-2.5663-.5766-.472-.872-.2565-1.8176.9247-2.4571z"/><path d="m46.2497 47.0206c.5312-.5185.8361-1.2259.8483-1.9681s-.2693-1.4591-.7831-1.9948c-.5139-.5357-1.2185-.8467-1.9606-.8654s-1.4615.2565-2.0016.7657c-1.1239 1.0778-1.1316 2.834-.0538 3.9575 1.0778 1.1234 2.8274 1.1833 3.9508.1051zm-3.1428-3.2766c.7158-.6866 1.6344-.5458 2.321.1701.6866.7158.7829 1.6333.0676 2.32s-1.6231.5458-2.3092-.1694c-.6862-.7151-.7955-1.634-.0794-2.3207z"/><path d="m51.3616 39.9456.7481-1.3281-2.6362.3219c.0318-.3294-.0336-.6609-.1881-.9535-.1545-.2927-.3913-.5337-.6812-.6932-.8357-.47-1.8987-.2038-2.4092.7036l-1.4557 2.5852 4.7563 2.6784.6032-1.0712-1.7067-.9616.5627-.9994zm-3.073-.4889-.7317 1.3-1.3502-.7604.7322-1.2995c.0466-.0908.1112-.171.1898-.2359.0787-.0649.1698-.1131.2677-.1416s.2006-.0368.3018-.0242c.1012.0125.1988.0455.2868.097.0911.0487.1714.1152.2363.1956s.1129.173.1413.2723c.0283.0993.0363.2034.0236.3059s-.0459.2014-.0976.2908z"/><path d="m53.0041 35.5001c.4793-2.0593-.3077-3.6645-1.8642-4.0271-1.5566-.3625-2.9724.7301-3.4517 2.7895l-.2898 1.2453 5.3159 1.2375zm-1.0092-.4705-.0635.2714-3.1925-.7435.063-.2714c.2432-1.0456.9145-1.8315 2.0476-1.5679 1.1331.2637 1.3886 1.2653 1.1454 2.3114z"/><path d="m52.2108 25.8934c-1.0077.0334-1.1695.5969-1.5817 1.7664-.3901 1.1117-.4767 1.4593-.8207 1.4706-.3195.0107-.4356-.2566-.4603-1.0262-.0194-.5994.0351-1.1988.1622-1.7849l-1.0051-.1557c-.1556.6522-.2274 1.3215-.2135 1.9918.0512 1.5479.5822 2.2361 1.5899 2.2023.9585-.0312 1.2493-.656 1.6676-1.9002.3436-1.0118.3989-1.3251.7348-1.3358.4097-.0139.5786.3907.6017 1.087.0209.6308-.0953 1.3318-.2939 2.0266l.9503.2233c.2689-.7366.3989-1.5166.3835-2.3006-.044-1.3439-.6913-2.2983-1.7148-2.2646z"/><path d="m11.3099 13.2038-.7245-.7536c-.4071.3425-.7734.7308-1.09159 1.1571-1.05843 1.3984-.94011 3.1429.39271 4.1516 1.24158.9401 2.94388.769 4.10598-.7662.3118-.4114.7623-1.211.9103-1.6236l-2.1102-1.5979-.6927.9145 1.3988 1.0588c-.1278.2366-.2748.4623-.4394.675-.6775.8952-1.6399.9579-2.4305.3594-.88229-.6677-.98319-1.5664-.1716-2.638.2535-.3391.539-.6529.8527-.9371z"/><path d="m16.9656 12.6417c-.574.4229-1.2718.3456-1.7378-.2878l-1.8889-2.56781-.9903.72861 1.8889 2.5672c.7481 1.0169 2.1844 1.3227 3.3789.4444 1.1946-.8783 1.3298-2.3415.5817-3.3579l-1.8889-2.56781-.9903.72863 1.8889 2.56778c.4665.6336.3323 1.3228-.2422 1.7447z"/><path d="m19.5522 6.11111-1.1245.49631 2.2037 4.99268 1.1245-.4964z"/><path d="m26.6395 9.81085 1.1751-.22478-1.0246-5.36048-1.191.22793.6785 3.54937-3.2703-3.05431-1.1752.22478 1.0246 5.36044 1.1909-.2278-.6768-3.54124z"/><path d="m30.0968 9.70393.4481-3.57752 2.17 3.90519 1.1868.1485.6779-5.41466-1.2032-.15058-.4486 3.58527-2.1694-3.91297-1.1869-.14849-.6779 5.41476z"/><path d="m36.9906 8.95649 2.4045 1.04751.4225-.96919-2.4045-1.04763.4224-.96931 2.5473 1.11005.4225-.96922-3.6749-1.60108-2.1802 5.00398 3.6743 1.6012.4224-.9693-2.5473-1.1101z"/><path d="m41.526 13.1271c-.4947-.3917-.9539-.9335-1.3564-1.5346l-.7839.5812c.3881.6812.899 1.2845 1.5069 1.7795 1.0533.8346 2.1997.9586 2.8357.1552.6256-.7904.301-1.277-.3247-2.3482-.596-1.0154-.8049-1.3066-.5914-1.576.1987-.25091.4768-.1664 1.0804.3118.47.3725.892.8018 1.2565 1.2781l.7686-.6667c-.3969-.5403-.8611-1.0276-1.3815-1.45011-1.214-.96157-2.0819-1.00101-2.7076-.21091-.5955.75162-.3072 1.37732.3718 2.50032.5494.9165.7526 1.1614.5442 1.4245-.2545.3207-.6728.1886-1.2186-.2441z"/><path d="m49.9924 16.1307c-.2432-.6243-.5652-1.215-.958-1.7578-.9237-1.2432-1.7517-1.5058-2.5607-.9047-.7696.5713-.6528 1.2501-.2882 2.5104.2933 1.0272.426 1.3159.1566 1.5164-.3292.2447-.6984.008-1.1136-.5505-.3759-.5064-.6795-1.149-.9124-1.8331l-.9079.3579c.1986.7583.5359 1.4732.9949 2.1086.8013 1.0788 1.8755 1.4952 2.6979.8843.8089-.6007.6216-1.1557.2944-2.3518-.3124-1.1352-.4388-1.4701-.1623-1.6753.2565-.1905.5028-.037.962.5811.3574.4815.6539 1.0054.8828 1.5596z"/><path d="m9.62263 32.5388-.02-1.213-3.19966-.6933 3.17046-1.085-.0133-.8438-3.20482-.9806 3.17562-.7976-.01992-1.2126-5.43581 1.4163.01588.9754 3.42703 1.0507-3.39065 1.17.01589.9749z"/></g></svg>