<svg fill="none" height="8" viewBox="0 0 8 8" width="8" xmlns="http://www.w3.org/2000/svg" xmlns:xlink="http://www.w3.org/1999/xlink"><linearGradient id="a" gradientUnits="userSpaceOnUse" x1="6.3023" x2="6.30229" y1="-.491448" y2="16.7816"><stop offset="0" stop-color="#3a4a3e"/><stop offset="1" stop-color="#fff"/></linearGradient><path d="m6.37663 8c-.58295 0-1.27327-.19619-1.99632-.56726-.75381-.38698-1.50994-.94914-2.1866-1.62585-.89664-.89681-1.584845-1.92553-1.937686-2.89677-.3383345-.93105-.3414302-1.72564-.008741-2.237297.068407-.105258.16504-.192669.279456-.252885l.748471-.3937147c.03309-.01736078.06872-.0262233.10592-.0262233.06829 0 .13239.030169.17585.0826764l1.16432 1.4073836c.07545.09117.06919.22296-.01445.3066l-.44899.44902c-.14713.14714-.18677.37247-.09869.56076.15405.32931.52553.99479 1.2828 1.75205.75728.7572 1.42272 1.12882 1.75201 1.28288.06628.03096.13681.04668.20983.04668.13257 0 .25718-.0516.3509-.14538l.44899-.44908c.04304-.04303.10034-.06677.16128-.06677.05365 0 .10391.01809.14525.05233l1.40736 1.16439c.08261.06841.10634.1869.05645.28184l-.39376.74845c-.06015.11443-.14761.21107-.25293.2796-.25147.16353-.57135.24645-.95072.24645z" fill="url(#a)"/></svg>