<svg fill="none" height="22" viewBox="0 0 178 22" width="178" xmlns="http://www.w3.org/2000/svg" xmlns:xlink="http://www.w3.org/1999/xlink"><clipPath id="a"><path d="m0 0h177.31v21.66h-177.31z"/></clipPath><g clip-path="url(#a)"><g fill="#ffc100"><path d="m18.27 21.66-6.98-5.03-7.06 4.92 2.63-8.19-6.86-5.2 8.6-.03 2.83-8.13 2.68 8.18 8.61.17-6.95 5.08z"/><path d="m56.9204 21.66-6.98-5.03-7.06 4.92 2.63-8.19-6.86-5.2 8.6-.03 2.82-8.13 2.69 8.18 8.61.17-6.95 5.08z"/><path d="m95.5698 21.66-6.98-5.03-7.06 4.92 2.63-8.19-6.86-5.2 8.6-.03 2.82-8.13 2.69 8.18 8.6102.17-6.9502 5.08z"/><path d="m134.22 21.66-6.98-5.03-7.07 4.92 2.64-8.19-6.86-5.2 8.6-.03 2.82-8.13 2.69 8.18 8.6.17-6.94 5.08z"/></g><path d="m172.87 21.66-6.99-5.03-7.06 4.92 2.63-8.19-6.86-5.2 8.61-.03 2.82-8.13 2.69 8.18 8.6.17-6.94 5.08z" fill="#758891"/></g></svg>