<svg fill="none" height="9" viewBox="0 0 9 9" width="9" xmlns="http://www.w3.org/2000/svg" xmlns:xlink="http://www.w3.org/1999/xlink"><linearGradient id="a" gradientUnits="userSpaceOnUse" x1="7.09009" x2="7.09008" y1="-.552879" y2="18.8793"><stop offset="0" stop-color="#3a4a3e"/><stop offset="1" stop-color="#fff"/></linearGradient><path d="m8.64624 2.74832c-.22668-.53589-.55108-1.01711-.96429-1.43027-.41316-.413156-.89437-.737606-1.43027-.964294-.55496-.234731-1.14429-.353756-1.75168-.353756s-1.19672.119025-1.75168.353756c-.53589.226688-1.01711.551082-1.43027.964294-.413156.41321-.737606.89438-.964294 1.43027-.234731.55496-.353756 1.14429-.353756 1.75168s.119025 1.19672.353756 1.75168c.226688.5359.551082 1.01711.964294 1.43027.41316.41316.89438.73761 1.43027.96429.55496.23474 1.14429.35376 1.75168.35376s1.19672-.11902 1.75168-.35376c.5359-.22668 1.01711-.55108 1.43027-.96429.41316-.41316.73761-.89437.96429-1.43027.23474-.55496.35376-1.14429.35376-1.75168s-.11902-1.19672-.35376-1.75168zm-1.58332 3.22622c-.05141.09242-.14726.14456-.24604.14456-.04624 0-.09315-.01142-.13646-.03549l-2.31716-1.28886c-.08922-.04961-.14457-.14372-.14457-.24581v-2.72458c0-.15531.12595-.28125.28125-.28125.15531 0 .28125.12594.28125.28125v2.5592l2.1726 1.20842c.13574.07549.18456.24677.10907.3825z" fill="url(#a)"/></svg>